<svg xmlns="http://www.w3.org/2000/svg" viewBox="0 0 1350 350" width="1200" height="311">
  <defs>
    <marker id="arrowhead" markerWidth="8" markerHeight="8" refX="7" refY="4" orient="auto" markerUnits="strokeWidth">
      <path d="M 0 0 L 8 4 L 0 8 z" fill="#8b949e" />
    </marker>
    <pattern id="grid" width="20" height="20" patternUnits="userSpaceOnUse">
      <path d="M 20 0 L 0 0 0 20" fill="none" stroke="#21262d" stroke-width="0.5"/>
    </pattern>
  </defs>

  <rect width="1350" height="350" fill="#0d1117"/>
  <rect width="1350" height="350" fill="url(#grid)" opacity="0.5"/>

  <!-- Edges -->
  <path d="M 210 150 L 302 150" stroke="#8b949e" stroke-width="2" fill="none" marker-end="url(#arrowhead)" />
  <path d="M 470 132 L 500 132 L 500 80 L 562 80" stroke="#8b949e" stroke-width="2" fill="none" marker-end="url(#arrowhead)" />
  <path d="M 730 62 L 760 62 L 760 150 L 822 150" stroke="#8b949e" stroke-width="2" fill="none" marker-end="url(#arrowhead)" />
  <path d="M 990 150 L 1082 150" stroke="#8b949e" stroke-width="2" fill="none" marker-end="url(#arrowhead)" />
  <path d="M 730 98 L 760 98 L 760 202 L 562 202" stroke="#8b949e" stroke-width="2" fill="none" marker-end="url(#arrowhead)" />
  <path d="M 470 168 L 500 168 L 500 238 L 562 238" stroke="#8b949e" stroke-width="2" fill="none" marker-end="url(#arrowhead)" />

  <!-- Nodes -->
  <rect x="50" y="120" width="160" height="60" rx="6" fill="#161b22" stroke="#30363d" stroke-width="1.5" />
  <text x="130" y="151" text-anchor="middle" dominant-baseline="middle" fill="#c9d1d9" font-size="14" font-weight="600" font-family="-apple-system, BlinkMacSystemFont, "Segoe UI", Roboto, "Helvetica Neue", Arial, sans-serif" letter-spacing="0.3">Start</text>
  <rect x="310" y="120" width="160" height="60" rx="6" fill="#161b22" stroke="#30363d" stroke-width="1.5" />
  <text x="390" y="151" text-anchor="middle" dominant-baseline="middle" fill="#c9d1d9" font-size="14" font-weight="600" font-family="-apple-system, BlinkMacSystemFont, "Segoe UI", Roboto, "Helvetica Neue", Arial, sans-serif" letter-spacing="0.3">Authenticate</text>
  <rect x="570" y="50" width="160" height="60" rx="6" fill="#161b22" stroke="#30363d" stroke-width="1.5" />
  <text x="650" y="81" text-anchor="middle" dominant-baseline="middle" fill="#c9d1d9" font-size="14" font-weight="600" font-family="-apple-system, BlinkMacSystemFont, "Segoe UI", Roboto, "Helvetica Neue", Arial, sans-serif" letter-spacing="0.3">Validate Input</text>
  <rect x="570" y="190" width="160" height="60" rx="6" fill="#161b22" stroke="#30363d" stroke-width="1.5" />
  <text x="650" y="221" text-anchor="middle" dominant-baseline="middle" fill="#c9d1d9" font-size="14" font-weight="600" font-family="-apple-system, BlinkMacSystemFont, "Segoe UI", Roboto, "Helvetica Neue", Arial, sans-serif" letter-spacing="0.3">Error</text>
  <rect x="830" y="120" width="160" height="60" rx="6" fill="#161b22" stroke="#30363d" stroke-width="1.5" />
  <text x="910" y="151" text-anchor="middle" dominant-baseline="middle" fill="#c9d1d9" font-size="14" font-weight="600" font-family="-apple-system, BlinkMacSystemFont, "Segoe UI", Roboto, "Helvetica Neue", Arial, sans-serif" letter-spacing="0.3">Process Data</text>
  <rect x="1090" y="120" width="160" height="60" rx="6" fill="#161b22" stroke="#30363d" stroke-width="1.5" />
  <text x="1170" y="151" text-anchor="middle" dominant-baseline="middle" fill="#c9d1d9" font-size="14" font-weight="600" font-family="-apple-system, BlinkMacSystemFont, "Segoe UI", Roboto, "Helvetica Neue", Arial, sans-serif" letter-spacing="0.3">Success</text>
</svg>